PathFileType	4	(X/Y/Z)	C:/Users/opensim2020/Desktop/walking_exp_matlab/subject02_walking11_straight_04.trc	
DataRate	CameraRate	NumFrames	NumMarkers	Units	OrigDataRate	OrigDataStartFrame	OrigNumFrames	
100.00	100.00	4	42	mm	100.00	3425	227	
Frame#	Time	LFHD			RFHD			LBHD			RBHD			C7			T10			CLAV			STRN			RBAK			LSHO			LUPA			LELB			LFRM			LWRA			LWRB			LFIN			RSHO			RUPA			RELB			RFRM			RWRA			RWRB			RFIN			LASI			RASI			LPSI			RPSI			LTHI			LKNE			LTIB			LANK			LHEE			LTOE			RTHI			RKNE			RTIB			RANK			RHEE			RTOE			*39			*40			*41			
		X1	Y1	Z1	X2	Y2	Z2	X3	Y3	Z3	X4	Y4	Z4	X5	Y5	Z5	X6	Y6	Z6	X7	Y7	Z7	X8	Y8	Z8	X9	Y9	Z9	X10	Y10	Z10	X11	Y11	Z11	X12	Y12	Z12	X13	Y13	Z13	X14	Y14	Z14	X15	Y15	Z15	X16	Y16	Z16	X17	Y17	Z17	X18	Y18	Z18	X19	Y19	Z19	X20	Y20	Z20	X21	Y21	Z21	X22	Y22	Z22	X23	Y23	Z23	X24	Y24	Z24	X25	Y25	Z25	X26	Y26	Z26	X27	Y27	Z27	X28	Y28	Z28	X29	Y29	Z29	X30	Y30	Z30	X31	Y31	Z31	X32	Y32	Z32	X33	Y33	Z33	X34	Y34	Z34	X35	Y35	Z35	X36	Y36	Z36	X37	Y37	Z37	X38	Y38	Z38	X39	Y39	Z39	X40	Y40	Z40	X41	Y41	Z41	X42	Y42	Z42	

199	1.980	-941.62897	-760.42139	1717.57214	-1084.22107	-769.37463	1704.24854	-946.05981	-628.06866	1645.89453	-1088.36755	-624.79797	1631.57605	-1030.57166	-580.32202	1502.21448	-1045.72327	-536.76215	1226.58362	-1008.96014	-723.03674	1438.97778	-1029.77271	-781.83411	1270.71838	-1106.87170	-533.66644	1331.07361	-846.05920	-631.96771	1466.71472	-777.12012	-594.56500	1265.63940	-776.68005	-572.69507	1128.48865	-758.68445	-551.91418	1001.09100	-768.29529	-583.83875	864.67181	-750.55383	-532.29346	879.26886	-740.73102	-535.03302	812.80200	-1210.35559	-676.92395	1482.13367	-1306.14600	-689.72974	1292.77209	-1330.80298	-738.27460	1154.26636	-1343.99841	-803.86353	1052.30640	-1316.33923	-884.77899	946.67297	-1355.66382	-848.15430	930.00745	-1351.97644	-904.17181	884.14880	-918.86902	-788.05042	971.23181	-1176.88647	-773.93152	955.16339	-985.58075	-571.14227	1007.97876	-1099.23108	-559.56055	1007.49231	-850.57629	-776.14252	669.44269	-891.01978	-803.96338	470.71536	-904.25873	-793.77081	276.15189	-935.40039	-846.05829	62.81689	-995.31885	-826.42188	37.53389	-893.37476	-998.02014	32.49928	-1237.52966	-630.38330	662.07635	-1206.50745	-577.71002	457.53580	-1208.02234	-464.51434	304.39368	-1175.28796	-375.55307	131.33888	-1116.66895	-330.09637	89.15241	-1199.80505	-502.29605	34.66981	-1035.15564	-665.87927	1788.55444	-3360.27734	2845.20435	1034.16931			 
200	1.990	-938.85522	-768.01489	1718.88428	-1081.40308	-776.88947	1705.30396	-942.81067	-635.58081	1646.74341	-1085.15405	-632.54846	1632.15967	-1026.96045	-589.06299	1503.42957	-1042.71582	-545.89215	1226.93372	-1006.13379	-730.53717	1439.53723	-1026.50244	-790.33545	1271.73010	-1102.93616	-541.95355	1331.10010	-842.37750	-640.70789	1467.02344	-773.76447	-604.98718	1265.49951	-773.31921	-583.66144	1128.09351	-756.03180	-563.15784	1000.15088	-766.16577	-597.63104	864.34235	-748.07269	-545.55371	878.33752	-738.34753	-548.58655	812.06476	-1207.63074	-684.57257	1482.11597	-1302.62183	-696.20972	1291.87219	-1327.19800	-743.99738	1153.47229	-1340.58362	-808.30597	1050.69360	-1313.43860	-888.23016	944.16913	-1352.57361	-851.23163	928.03864	-1349.22717	-906.72888	881.61151	-915.11401	-798.10559	972.22205	-1173.27454	-783.85547	955.13641	-982.04590	-580.50366	1010.15979	-1095.92822	-569.57367	1007.61493	-849.16986	-785.56647	671.33051	-888.33411	-814.46985	472.67636	-897.93317	-799.64905	278.15262	-934.80865	-846.75928	64.22676	-994.35339	-825.92554	38.05110	-893.49652	-999.13397	31.82897	-1235.30261	-640.29974	662.86530	-1206.16785	-587.52301	458.70245	-1207.85413	-471.38815	307.87729	-1176.03503	-379.32968	136.51395	-1117.22009	-333.29010	95.50645	-1200.19348	-502.94550	34.66874	-1032.10339	-673.18390	1789.30688	-3360.43530	2845.21704	1034.22510			 
201	2.000	-936.25989	-775.93011	1720.08655	-1078.50537	-784.34375	1706.42004	-939.38104	-643.82562	1647.56104	-1081.81030	-640.37402	1632.67432	-1023.85120	-597.76813	1504.93140	-1039.82275	-554.87921	1227.45068	-1003.04688	-738.86700	1440.60559	-1023.15967	-798.88452	1272.92322	-1099.75049	-550.19971	1331.40149	-838.89532	-649.58875	1467.77380	-770.39227	-615.38647	1265.77795	-770.48737	-594.81622	1127.85815	-752.99890	-575.71722	999.97552	-764.08972	-611.65039	864.14764	-745.54791	-559.34705	877.97961	-735.98724	-562.76202	811.69910	-1204.76941	-692.40936	1482.56653	-1299.14917	-702.38489	1291.61682	-1323.58069	-749.56671	1153.18677	-1336.79993	-812.34601	1049.35205	-1310.41272	-891.18005	941.99188	-1349.45557	-853.80267	926.40924	-1346.57678	-908.76074	879.42480	-910.99677	-807.72339	973.67657	-1169.34290	-793.68890	955.50293	-978.75397	-589.93994	1012.23773	-1093.17554	-580.04553	1008.57642	-847.42810	-796.84985	673.26807	-885.79169	-823.94257	473.92209	-894.07635	-805.91870	279.76624	-934.19519	-847.90393	64.48426	-994.04358	-826.65009	37.49383	-893.10901	-1000.30170	31.07254	-1233.06213	-650.57294	663.73181	-1206.39966	-598.28882	459.97159	-1207.82239	-479.13086	311.52100	-1176.78186	-383.50342	142.00270	-1117.57703	-337.12329	102.32379	-1200.63379	-503.47119	34.95202	-1028.93555	-680.30994	1790.05139	-3360.45239	2845.26831	1034.11267			 
202	2.010	-932.78699	-783.03259	1721.34070	-1075.52539	-791.74323	1707.70813	-936.41821	-652.01892	1648.09973	-1078.79895	-647.98486	1633.24158	-1020.83527	-605.70459	1505.96069	-1037.04919	-563.73230	1228.00806	-1000.22827	-746.51599	1441.45129	-1019.81226	-807.47461	1274.22778	-1096.15088	-558.80627	1331.95081	-835.67523	-658.50623	1468.92615	-767.07324	-625.74969	1266.46497	-767.42303	-606.07892	1128.31750	-750.04663	-588.32660	1000.17242	-761.74323	-624.35199	864.69659	-742.76697	-572.79913	877.91943	-733.58557	-577.60022	811.85028	-1201.93640	-700.61395	1483.32520	-1295.32703	-708.60449	1291.97363	-1318.95605	-755.25793	1153.08606	-1333.18994	-816.42950	1048.71484	-1307.34668	-893.73724	939.95270	-1346.33105	-855.91827	925.27069	-1343.96204	-910.44641	877.44385	-906.87469	-816.95752	975.78101	-1164.97473	-803.53638	956.25311	-975.72650	-599.00018	1013.93225	-1090.83044	-590.39459	1009.82428	-844.83557	-808.72040	674.68536	-883.59772	-832.14081	474.51401	-892.35406	-810.62677	280.57166	-933.95709	-848.68890	64.40156	-994.10010	-826.97552	37.84380	-893.54498	-1001.13190	30.62596	-1230.88647	-661.15222	664.61334	-1206.96631	-609.90515	461.14395	-1208.41309	-487.33142	315.37598	-1177.47229	-388.39810	147.62167	-1117.56274	-341.95200	109.46236	-1200.73364	-504.08081	34.86674	-1026.41809	-687.79248	1791.15063	-3360.31030	2845.19531	1034.15808			 
